# xmcd
#
# Track frame offsets: 
#        150
#        11132
#        27747
#        46389
#        65563
#        85956
#        99611
#        115538
#        138655
#        156078
#
# Disc length: 2312 seconds
#
# Revision: 0
# Processed by: cddbd v1.5.2PL0 Copyright (c) Steve Scherf et al.
# Submitted via: ExactAudioCopyFreeDBPlugin 1.0
#
DISCID=8709060a
DTITLE=Impala Ray - Old Mill Valley
DYEAR=2014
DGENRE=Folk/Rock
TTITLE0=Old Mill Valley
TTITLE1=My Last Goodbye
TTITLE2=The Gambler
TTITLE3=Io and I
TTITLE4=White Palms
TTITLE5=Wild Winds
TTITLE6=Tides Are Changing
TTITLE7=Diego's Daughter
TTITLE8=Go Bay Bridged
TTITLE9=For Her and Him
EXTD=
EXTT0=
EXTT1=
EXTT2=
EXTT3=
EXTT4=
EXTT5=
EXTT6=
EXTT7=
EXTT8=
EXTT9=
PLAYORDER=
